<svg width="20" height="20" viewBox="0 0 20 20" fill="none" xmlns="http://www.w3.org/2000/svg">
<path d="M9.98438 0C4.45312 0 0 4.45312 0 9.98438C0 15.5156 4.45312 19.9688 9.98438 19.9688H15V18H9.98438C5.625 18 1.96875 14.3438 1.96875 9.98438C1.96875 5.625 5.625 1.96875 9.98438 1.96875C14.3438 1.96875 18 5.625 18 9.98438V11.3906C18 12.1875 17.2969 12.9844 16.5 12.9844C15.7031 12.9844 15 12.1875 15 11.3906V9.98438C15 7.21875 12.75 4.96875 9.98438 4.96875C7.21875 4.96875 4.96875 7.21875 4.96875 9.98438C4.96875 12.75 7.21875 15 9.98438 15C11.3438 15 12.6094 14.4375 13.5469 13.5C14.1562 14.3906 15.2812 15 16.5 15C18.4688 15 19.9688 13.3594 19.9688 11.3906V9.98438C19.9688 4.45312 15.5156 0 9.98438 0ZM9.98438 12.9844C8.34375 12.9844 6.98438 11.625 6.98438 9.98438C6.98438 8.34375 8.34375 6.98438 9.98438 6.98438C11.625 6.98438 12.9844 8.34375 12.9844 9.98438C12.9844 11.625 11.625 12.9844 9.98438 12.9844Z" fill="currentColor"/>
</svg>
