<svg width="23" height="20" viewBox="0 0 23 20" fill="none" xmlns="http://www.w3.org/2000/svg">
<path d="M21.4688 4.6875C21 4.45312 20.5312 4.26562 20.0156 4.07812V16.125C18.8906 15.7031 17.7188 15.4688 16.5 15.4688C14.625 15.4688 12.75 16.0312 11.0156 17.0625V4.96875C9.375 4.03125 7.54688 3.46875 5.53125 3.46875C3.70312 3.46875 2.01562 3.9375 0.5625 4.6875C0.234375 4.82812 0 5.20312 0 5.57812V17.625C0 18.2344 0.46875 18.6562 1.03125 18.6562C1.17188 18.6562 1.3125 18.6094 1.5 18.5156C2.71875 17.9062 4.07812 17.4844 5.53125 17.4844C7.59375 17.4844 9.51562 18.2812 11.0156 19.5C12.5156 18.2812 14.4375 17.4844 16.5 17.4844C17.9531 17.4844 19.3125 17.9062 20.5312 18.5156C20.7188 18.6094 20.8594 18.6562 21 18.6562C21.5156 18.6562 22.0312 18.2344 22.0312 17.6719V5.57812C22.0312 5.20312 21.7969 4.82812 21.4688 4.6875ZM9 16.125C7.875 15.7031 6.70312 15.4688 5.53125 15.4688C4.3125 15.4688 3.14062 15.7031 2.01562 16.125V6.1875C3.14062 5.71875 4.3125 5.48438 5.53125 5.48438C6.70312 5.48438 7.92188 5.71875 9 6.1875V16.125ZM18 0L13.0312 4.96875V14.4844L18 9.98438V0Z" fill="currentColor"/>
</svg>
