<svg width="28" height="37" viewBox="0 0 28 37" fill="none" xmlns="http://www.w3.org/2000/svg">
<path d="M8.82495 19.2599V25.9321C8.82495 26.3042 8.52532 26.6101 8.1609 26.6101C8.03943 26.6101 7.92605 26.577 7.82077 26.5109L6.12015 25.4691C5.61806 25.1632 5.31033 24.6092 5.31033 24.0139V21.1781C5.31033 20.5828 5.0026 20.0288 4.50051 19.7229L1.30982 17.7551C0.807732 17.4492 0.5 16.8953 0.5 16.3V1.17797C0.5 0.805913 0.791535 0.5 1.16405 0.5C1.28553 0.5 1.4151 0.533072 1.52037 0.599215L2.68651 1.34333C3.17241 1.65751 3.47204 2.20319 3.47204 2.79021V14.0428C3.47204 14.6381 3.77977 15.1921 4.28186 15.498L8.03133 17.7965C8.51722 18.1107 8.82495 18.6646 8.82495 19.2599Z" stroke="#1E293B" stroke-miterlimit="10"/>
<path d="M12.3923 7.85703L5.92305 3.98352C5.60924 3.79907 5.20692 3.8953 5.02185 4.20807C4.95748 4.31233 4.92529 4.4246 4.92529 4.5449V12.332C4.92529 12.9094 5.23106 13.4467 5.72993 13.7435L9.44736 15.9729C9.94624 16.2697 10.252 16.807 10.252 17.3844V33.8648C10.252 34.4423 10.5578 34.9796 11.0566 35.2763L12.1992 35.958C12.513 36.1424 12.9154 36.0462 13.1004 35.7334C13.1648 35.6292 13.197 35.5169 13.197 35.3966V9.26047C13.197 8.69909 12.8912 8.16177 12.3923 7.85703Z" stroke="#1E293B" stroke-miterlimit="10"/>
<path d="M19.0952 19.4536V25.9254C19.0952 26.2863 19.3929 26.583 19.755 26.583C19.8757 26.583 19.9884 26.551 20.093 26.4868L21.7827 25.4763C22.2816 25.1796 22.5873 24.6423 22.5873 24.0649V21.3221C22.5873 20.7447 22.8931 20.2074 23.392 19.9107L26.5623 18.01C27.0611 17.7133 27.3669 17.176 27.3669 16.5985V1.91451C27.3669 1.55363 27.0772 1.2569 26.7071 1.2569C26.5784 1.2569 26.4577 1.28898 26.3531 1.35313L25.1944 2.0749C24.7116 2.37965 24.4139 2.90895 24.4139 3.47835V14.3931C24.4139 14.9706 24.1081 15.5079 23.6092 15.8046L19.8918 18.0341C19.409 18.3388 19.0952 18.8761 19.0952 19.4536Z" stroke="#1E293B" stroke-miterlimit="10"/>
<path d="M15.4741 7.85688L21.9434 3.98338C22.2572 3.79091 22.6595 3.89516 22.8526 4.19991C22.917 4.30417 22.9492 4.42446 22.9492 4.54476V12.3319C22.9492 12.9093 22.6434 13.4466 22.1445 13.7433L18.4271 15.9728C17.9282 16.2695 17.6225 16.8068 17.6225 17.3843V33.8647C17.6225 34.4421 17.3167 34.9794 16.8178 35.2762L15.6752 35.9578C15.3614 36.1423 14.9591 36.0461 14.774 35.7333C14.7097 35.629 14.6775 35.5168 14.6775 35.3965L14.6694 9.27637C14.6694 8.69895 14.9752 8.16163 15.4741 7.85688Z" stroke="#1E293B" stroke-miterlimit="10"/>
</svg>
