<svg xmlns="http://www.w3.org/2000/svg" width="14" height="18" viewBox="0 0 14 18" fill="none">
<path d="M8.33333 17.9166V12.9166L6.58333 11.25L5.75 14.9166L0 13.75L0.333333 12.0833L4.33333 12.9166L5.66667 6.16663L4.16667 6.74996V9.58329H2.5V5.66663L5.79167 4.24996C6.27778 4.04163 6.63542 3.90621 6.86458 3.84371C7.09375 3.78121 7.30556 3.74996 7.5 3.74996C7.79167 3.74996 8.0625 3.82635 8.3125 3.97913C8.5625 4.1319 8.76389 4.33329 8.91667 4.58329L9.75 5.91663C10.1111 6.49996 10.6007 6.97913 11.2188 7.35413C11.8368 7.72913 12.5417 7.91663 13.3333 7.91663V9.58329C12.4167 9.58329 11.559 9.39232 10.7604 9.01038C9.96181 8.62843 9.29167 8.12496 8.75 7.49996L8.25 9.99996L10 11.6666V17.9166H8.33333ZM8.75 3.33329C8.75 3.33329 8.63542 3.33329 8.40625 3.33329C8.17708 3.33329 7.89931 3.1701 7.57292 2.84371C7.24653 2.51732 7.08333 2.12496 7.08333 1.66663C7.08333 1.20829 7.24653 0.815931 7.57292 0.489542C7.89931 0.163153 8.29167 -4.19617e-05 8.75 -4.19617e-05C9.20833 -4.19617e-05 9.60069 0.163153 9.92708 0.489542C10.2535 0.815931 10.4167 1.20829 10.4167 1.66663C10.4167 2.12496 10.2535 2.51732 9.92708 2.84371C9.60069 3.1701 9.20833 3.33329 8.75 3.33329Z" fill="currentColor"/>
</svg>