<svg xmlns="http://www.w3.org/2000/svg" width="15" height="15" viewBox="0 0 15 15" fill="none">
<path d="M0.833333 15V10H14.1667V15H12.5V11.6667H2.5V15H0.833333ZM1.25 9.16667C0.902778 9.16667 0.607639 9.04514 0.364583 8.80208C0.121528 8.55903 0 8.26389 0 7.91667C0 7.56944 0.121528 7.27431 0.364583 7.03125C0.607639 6.78819 0.902778 6.66667 1.25 6.66667C1.59722 6.66667 1.89236 6.78819 2.13542 7.03125C2.37847 7.27431 2.5 7.56944 2.5 7.91667C2.5 8.26389 2.37847 8.55903 2.13542 8.80208C1.89236 9.04514 1.59722 9.16667 1.25 9.16667ZM3.33333 9.16667V1.66667C3.33333 1.20833 3.49653 0.815971 3.82292 0.489583C4.14931 0.163194 4.54167 0 5 0H10C10.4583 0 10.8507 0.163194 11.1771 0.489583C11.5035 0.815971 11.6667 1.20833 11.6667 1.66667V9.16667H3.33333ZM13.75 9.16667C13.75 9.16667 13.6632 9.16667 13.4896 9.16667C13.316 9.16667 13.1076 9.04514 12.8646 8.80208C12.6215 8.55903 12.5 8.26389 12.5 7.91667C12.5 7.56944 12.6215 7.27431 12.8646 7.03125C13.1076 6.78819 13.4028 6.66667 13.75 6.66667C14.0972 6.66667 14.3924 6.78819 14.6354 7.03125C14.8785 7.27431 15 7.56944 15 7.91667C15 8.26389 14.8785 8.55903 14.6354 8.80208C14.3924 9.04514 14.0972 9.16667 13.75 9.16667ZM5 7.5H10V1.66667H5V7.5Z" fill="currentColor"/>
</svg>