<svg xmlns="http://www.w3.org/2000/svg" width="17" height="16" viewBox="0 0 17 16" fill="none">
<path d="M8.33333 15.2916L7.125 14.2083C5.72222 12.9444 4.5625 11.8541 3.64583 10.9375C2.72917 10.0208 2 9.19788 1.45833 8.46871C0.916667 7.73954 0.538194 7.0694 0.322917 6.45829C0.107639 5.84718 0 5.22218 0 4.58329C0 3.27774 0.4375 2.18746 1.3125 1.31246C2.1875 0.437459 3.27778 -4.1008e-05 4.58333 -4.1008e-05C5.30556 -4.1008e-05 5.99306 0.152737 6.64583 0.458292C7.29861 0.763847 7.86111 1.1944 8.33333 1.74996C8.80556 1.1944 9.36806 0.763847 10.0208 0.458292C10.6736 0.152737 11.3611 -4.1008e-05 12.0833 -4.1008e-05C13.3889 -4.1008e-05 14.4792 0.437459 15.3542 1.31246C16.2292 2.18746 16.6667 3.27774 16.6667 4.58329C16.6667 5.22218 16.559 5.84718 16.3438 6.45829C16.1285 7.0694 15.75 7.73954 15.2083 8.46871C14.6667 9.19788 13.9375 10.0208 13.0208 10.9375C12.1042 11.8541 10.9444 12.9444 9.54167 14.2083L8.33333 15.2916ZM8.33333 13.0416C9.66667 11.8472 10.7639 10.8229 11.625 9.96871C12.4861 9.11454 13.1667 8.37149 13.6667 7.73954C14.1667 7.1076 14.5139 6.5451 14.7083 6.05204C14.9028 5.55899 15 5.0694 15 4.58329C15 3.74996 14.7222 3.05551 14.1667 2.49996C13.6111 1.9444 12.9167 1.66663 12.0833 1.66663C11.4306 1.66663 10.8264 1.85065 10.2708 2.21871C9.71528 2.58676 9.33333 3.05551 9.125 3.62496H7.54167C7.33333 3.05551 6.95139 2.58676 6.39583 2.21871C5.84028 1.85065 5.23611 1.66663 4.58333 1.66663C3.75 1.66663 3.05556 1.9444 2.5 2.49996C1.94444 3.05551 1.66667 3.74996 1.66667 4.58329C1.66667 5.0694 1.76389 5.55899 1.95833 6.05204C2.15278 6.5451 2.5 7.1076 3 7.73954C3.5 8.37149 4.18056 9.11454 5.04167 9.96871C5.90278 10.8229 7 11.8472 8.33333 13.0416Z" fill="currentColor"/>
</svg>