<svg xmlns="http://www.w3.org/2000/svg" width="16" height="17" viewBox="0 0 16 17" fill="none">
<path d="M2.5 16.6666V13.0833C1.70833 12.3611 1.09375 11.5173 0.65625 10.552C0.21875 9.58676 0 8.5694 0 7.49996C0 5.41663 0.729167 3.64579 2.1875 2.18746C3.64583 0.729124 5.41667 -4.19617e-05 7.5 -4.19617e-05C9.23611 -4.19617e-05 10.7743 0.510374 12.1146 1.53121C13.4549 2.55204 14.3264 3.8819 14.7292 5.52079L15.8125 9.79163C15.8819 10.0555 15.8333 10.2951 15.6667 10.5104C15.5 10.7257 15.2778 10.8333 15 10.8333H13.3333V13.3333C13.3333 13.7916 13.1701 14.184 12.8438 14.5104C12.5174 14.8368 12.125 15 11.6667 15H10V16.6666H8.33333V13.3333H11.6667V9.16663H13.9167L13.125 5.93746C12.8056 4.67357 12.125 3.64579 11.0833 2.85412C10.0417 2.06246 8.84722 1.66662 7.5 1.66662C5.88889 1.66662 4.51389 2.22912 3.375 3.35412C2.23611 4.47912 1.66667 5.84718 1.66667 7.45829C1.66667 8.29163 1.83681 9.08329 2.17708 9.83329C2.51736 10.5833 3 11.25 3.625 11.8333L4.16667 12.3333V16.6666H2.5ZM6.66667 10.8333H8.33333L8.45833 9.79163C8.56944 9.74996 8.67014 9.70135 8.76042 9.64579C8.85069 9.59024 8.93056 9.52774 9 9.45829L9.95833 9.87496L10.7917 8.45829L9.95833 7.83329C9.98611 7.72218 10 7.61107 10 7.49996C10 7.38885 9.98611 7.27774 9.95833 7.16663L10.7917 6.54163L9.95833 5.12496L9 5.54163C8.93056 5.47218 8.85069 5.40968 8.76042 5.35413C8.67014 5.29857 8.56944 5.24996 8.45833 5.20829L8.33333 4.16662H6.66667L6.54167 5.20829C6.43056 5.24996 6.32986 5.29857 6.23958 5.35413C6.14931 5.40968 6.06944 5.47218 6 5.54163L5.04167 5.12496L4.20833 6.54163L5.04167 7.16663C5.01389 7.27774 5 7.38885 5 7.49996C5 7.61107 5.01389 7.72218 5.04167 7.83329L4.20833 8.45829L5.04167 9.87496L6 9.45829C6.06944 9.52774 6.14931 9.59024 6.23958 9.64579C6.32986 9.70135 6.43056 9.74996 6.54167 9.79163L6.66667 10.8333ZM7.5 8.74996C7.5 8.74996 7.41319 8.74996 7.23958 8.74996C7.06597 8.74996 6.85764 8.62843 6.61458 8.38538C6.37153 8.14232 6.25 7.84718 6.25 7.49996C6.25 7.15274 6.37153 6.8576 6.61458 6.61454C6.85764 6.37149 7.15278 6.24996 7.5 6.24996C7.84722 6.24996 8.14236 6.37149 8.38542 6.61454C8.62847 6.8576 8.75 7.15274 8.75 7.49996C8.75 7.84718 8.62847 8.14232 8.38542 8.38538C8.14236 8.62843 7.84722 8.74996 7.5 8.74996Z" fill="currentColor"/>
</svg>