<svg width="11" height="11" viewBox="0 0 11 11" fill="none" xmlns="http://www.w3.org/2000/svg">
<path d="M1.33333 10.6667C0.966667 10.6667 0.652778 10.5361 0.391667 10.275C0.130556 10.0139 0 9.7 0 9.33333C0 8.96667 0.130556 8.65278 0.391667 8.39167C0.652778 8.13056 0.966667 8 1.33333 8C1.7 8 2.01389 8.13056 2.275 8.39167C2.53611 8.65278 2.66667 8.96667 2.66667 9.33333C2.66667 9.7 2.53611 10.0139 2.275 10.275C2.01389 10.5361 1.7 10.6667 1.33333 10.6667ZM5.33333 10.6667C4.96667 10.6667 4.65278 10.5361 4.39167 10.275C4.13056 10.0139 4 9.7 4 9.33333C4 8.96667 4.13056 8.65278 4.39167 8.39167C4.65278 8.13056 4.96667 8 5.33333 8C5.7 8 6.01389 8.13056 6.275 8.39167C6.53611 8.65278 6.66667 8.96667 6.66667 9.33333C6.66667 9.7 6.53611 10.0139 6.275 10.275C6.01389 10.5361 5.7 10.6667 5.33333 10.6667ZM9.33333 10.6667C8.96667 10.6667 8.65278 10.5361 8.39167 10.275C8.13056 10.0139 8 9.7 8 9.33333C8 8.96667 8.13056 8.65278 8.39167 8.39167C8.65278 8.13056 8.96667 8 9.33333 8C9.7 8 10.0139 8.13056 10.275 8.39167C10.5361 8.65278 10.6667 8.96667 10.6667 9.33333C10.6667 9.7 10.5361 10.0139 10.275 10.275C10.0139 10.5361 9.7 10.6667 9.33333 10.6667ZM1.33333 6.66667C0.966667 6.66667 0.652778 6.53611 0.391667 6.275C0.130556 6.01389 0 5.7 0 5.33333C0 4.96667 0.130556 4.65278 0.391667 4.39167C0.652778 4.13056 0.966667 4 1.33333 4C1.7 4 2.01389 4.13056 2.275 4.39167C2.53611 4.65278 2.66667 4.96667 2.66667 5.33333C2.66667 5.7 2.53611 6.01389 2.275 6.275C2.01389 6.53611 1.7 6.66667 1.33333 6.66667ZM5.33333 6.66667C4.96667 6.66667 4.65278 6.53611 4.39167 6.275C4.13056 6.01389 4 5.7 4 5.33333C4 4.96667 4.13056 4.65278 4.39167 4.39167C4.65278 4.13056 4.96667 4 5.33333 4C5.7 4 6.01389 4.13056 6.275 4.39167C6.53611 4.65278 6.66667 4.96667 6.66667 5.33333C6.66667 5.7 6.53611 6.01389 6.275 6.275C6.01389 6.53611 5.7 6.66667 5.33333 6.66667ZM9.33333 6.66667C8.96667 6.66667 8.65278 6.53611 8.39167 6.275C8.13056 6.01389 8 5.7 8 5.33333C8 4.96667 8.13056 4.65278 8.39167 4.39167C8.65278 4.13056 8.96667 4 9.33333 4C9.7 4 10.0139 4.13056 10.275 4.39167C10.5361 4.65278 10.6667 4.96667 10.6667 5.33333C10.6667 5.7 10.5361 6.01389 10.275 6.275C10.0139 6.53611 9.7 6.66667 9.33333 6.66667ZM1.33333 2.66667C0.966667 2.66667 0.652778 2.53611 0.391667 2.275C0.130556 2.01389 0 1.7 0 1.33333C0 0.966667 0.130556 0.652778 0.391667 0.391667C0.652778 0.130556 0.966667 0 1.33333 0C1.7 0 2.01389 0.130556 2.275 0.391667C2.53611 0.652778 2.66667 0.966667 2.66667 1.33333C2.66667 1.7 2.53611 2.01389 2.275 2.275C2.01389 2.53611 1.7 2.66667 1.33333 2.66667ZM5.33333 2.66667C4.96667 2.66667 4.65278 2.53611 4.39167 2.275C4.13056 2.01389 4 1.7 4 1.33333C4 0.966667 4.13056 0.652778 4.39167 0.391667C4.65278 0.130556 4.96667 0 5.33333 0C5.7 0 6.01389 0.130556 6.275 0.391667C6.53611 0.652778 6.66667 0.966667 6.66667 1.33333C6.66667 1.7 6.53611 2.01389 6.275 2.275C6.01389 2.53611 5.7 2.66667 5.33333 2.66667ZM9.33333 2.66667C8.96667 2.66667 8.65278 2.53611 8.39167 2.275C8.13056 2.01389 8 1.7 8 1.33333C8 0.966667 8.13056 0.652778 8.39167 0.391667C8.65278 0.130556 8.96667 0 9.33333 0C9.7 0 10.0139 0.130556 10.275 0.391667C10.5361 0.652778 10.6667 0.966667 10.6667 1.33333C10.6667 1.7 10.5361 2.01389 10.275 2.275C10.0139 2.53611 9.7 2.66667 9.33333 2.66667Z" fill="currentColor"/>
</svg>
